<svg xmlns="http://www.w3.org/2000/svg" width="26" height="26" viewBox="0 0 26 26">
  <g id="day" transform="translate(-1794 -97)">
    <circle id="Ellipse_9" data-name="Ellipse 9" cx="13" cy="13" r="13" transform="translate(1794 97)" fill="#2340ff"/>
    <path id="sun-solid" d="M12.846.007a.576.576,0,0,1,.342.424L13.9,4.276l3.845.706a.576.576,0,0,1,.424.342.566.566,0,0,1-.057.542l-2.22,3.221,2.22,3.218a.566.566,0,0,1,.057.542.576.576,0,0,1-.424.342L13.9,13.9l-.709,3.845a.576.576,0,0,1-.342.424.566.566,0,0,1-.542-.057l-3.218-2.22-3.218,2.22a.566.566,0,0,1-.542.057.576.576,0,0,1-.342-.424L4.276,13.9.431,13.188a.576.576,0,0,1-.424-.342A.566.566,0,0,1,.064,12.3l2.22-3.218L.064,5.869a.566.566,0,0,1-.057-.542.576.576,0,0,1,.424-.342l3.845-.709L4.985.431A.576.576,0,0,1,5.327.007a.566.566,0,0,1,.542.057l3.218,2.22L12.3.064a.566.566,0,0,1,.542-.057Zm-.339,9.079A3.421,3.421,0,1,1,9.086,5.666,3.422,3.422,0,0,1,12.507,9.086Zm1.14,0a4.561,4.561,0,1,0-4.561,4.561A4.561,4.561,0,0,0,13.647,9.086Z" transform="translate(1797.913 100.914)" fill="#fff"/>
  </g>
</svg>
