<svg xmlns="http://www.w3.org/2000/svg" width="23.5" height="23.5" viewBox="0 0 23.5 23.5">
  <path id="expires" d="M15.75,23.975a8.174,8.174,0,0,0,8.225-8.225A8.174,8.174,0,0,0,15.75,7.525V15.75l-5.611,5.875a7.3,7.3,0,0,0,2.556,1.748A7.978,7.978,0,0,0,15.75,23.975Zm0,3.525a11.369,11.369,0,0,1-4.553-.925A11.838,11.838,0,0,1,4.925,20.3a11.737,11.737,0,0,1,0-9.136A11.743,11.743,0,0,1,7.452,7.437,12.045,12.045,0,0,1,11.2,4.925a11.737,11.737,0,0,1,9.136,0,11.732,11.732,0,0,1,6.242,6.242,11.737,11.737,0,0,1,0,9.136,12.045,12.045,0,0,1-2.512,3.745,11.743,11.743,0,0,1-3.731,2.526A11.442,11.442,0,0,1,15.75,27.5Zm0-1.762a9.611,9.611,0,0,0,7.079-2.923,9.649,9.649,0,0,0,2.908-7.065,9.635,9.635,0,0,0-2.908-7.079A9.635,9.635,0,0,0,15.75,5.762,9.649,9.649,0,0,0,8.685,8.671,9.611,9.611,0,0,0,5.762,15.75a9.625,9.625,0,0,0,2.923,7.065A9.625,9.625,0,0,0,15.75,25.738ZM15.75,15.75Z" transform="translate(-4 -4)" fill="#2340ff"/>
</svg>
