<svg xmlns="http://www.w3.org/2000/svg" width="26" height="26" viewBox="0 0 26 26">
  <g id="night" transform="translate(-1735 -171)">
    <circle id="Ellipse_8" data-name="Ellipse 8" cx="13" cy="13" r="13" transform="translate(1735 171)" fill="#ff6b23"/>
    <path id="moon-solid" d="M11.773,1.6a9,9,0,0,0-9.311,9.007,9.569,9.569,0,0,0,9.547,9.242,9.338,9.338,0,0,0,6.539-2.5.628.628,0,0,0,.121-.76.7.7,0,0,0-.722-.355,7.616,7.616,0,0,1-1.268.09,7.518,7.518,0,0,1-7.5-7.262,6.915,6.915,0,0,1,3.686-6.2.627.627,0,0,0,.316-.7.693.693,0,0,0-.61-.517c-.266-.024-.532-.039-.8-.043Z" transform="matrix(0.951, -0.309, 0.309, 0.951, 1733.452, 176.687)" fill="#fff"/>
  </g>
</svg>
