<svg xmlns="http://www.w3.org/2000/svg" width="56.342" height="58.411" viewBox="0 0 56.342 58.411">
  <g id="sparkles" transform="translate(-5.256)">
    <path id="Path_3" data-name="Path 3" d="M15.064,32.778l1.288,3.492a.334.334,0,0,0,.627,0l1.288-3.492a10.3,10.3,0,0,1,6.1-6.1l3.492-1.288a.334.334,0,0,0,0-.627l-3.492-1.288a10.3,10.3,0,0,1-6.1-6.1l-1.288-3.492a.334.334,0,0,0-.627,0l-1.288,3.492a10.3,10.3,0,0,1-6.1,6.1L5.474,24.765a.334.334,0,0,0,0,.627L8.966,26.68A10.3,10.3,0,0,1,15.064,32.778Z" transform="translate(0 -10.979)" fill="#ffcbb2"/>
    <path id="Path_4" data-name="Path 4" d="M106.714,140.421l-3.492-1.288a10.3,10.3,0,0,1-6.1-6.1l-1.288-3.492a.334.334,0,0,0-.627,0l-1.288,3.492a10.3,10.3,0,0,1-6.1,6.1l-3.492,1.288a.334.334,0,0,0,0,.627l3.492,1.288a10.3,10.3,0,0,1,6.1,6.1l1.288,3.492a.334.334,0,0,0,.627,0l1.288-3.492a10.3,10.3,0,0,1,6.1-6.1l3.492-1.288a.334.334,0,0,0,0-.627Z" transform="translate(-63.337 -103.873)" fill="#ffcbb2"/>
    <path id="Path_5" data-name="Path 5" d="M228.094,79.036l-2.373-.875a7,7,0,0,1-4.144-4.144l-.875-2.373a.227.227,0,0,0-.426,0l-.875,2.373a7,7,0,0,1-4.144,4.144l-2.373.875a.227.227,0,0,0,0,.426l2.373.875a7,7,0,0,1,4.144,4.144l.875,2.374a.227.227,0,0,0,.426,0l.875-2.374a7,7,0,0,1,4.144-4.144l2.373-.875a.227.227,0,0,0,0-.426Z" transform="translate(-166.644 -57.424)" fill="#ffcbb2"/>
    <path id="Path_6" data-name="Path 6" d="M217.842,247.087l-1.656-.611a4.881,4.881,0,0,1-2.891-2.89l-.611-1.655a.158.158,0,0,0-.3,0l-.611,1.655a4.88,4.88,0,0,1-2.89,2.89l-1.656.611a.158.158,0,0,0,0,.3l1.655.611a4.881,4.881,0,0,1,2.891,2.891l.611,1.655a.158.158,0,0,0,.3,0l.611-1.655a4.881,4.881,0,0,1,2.891-2.891l1.655-.611a.158.158,0,0,0,0-.3Z" transform="translate(-162.142 -194.233)" fill="#ffcbb2"/>
    <path id="Path_7" data-name="Path 7" d="M155.808,5.26l-1.656-.611a4.88,4.88,0,0,1-2.89-2.891L150.652.1a.158.158,0,0,0-.3,0l-.611,1.655a4.881,4.881,0,0,1-2.891,2.891L145.2,5.26a.158.158,0,0,0,0,.3l1.655.611a4.881,4.881,0,0,1,2.891,2.891l.611,1.655a.158.158,0,0,0,.3,0l.611-1.655a4.879,4.879,0,0,1,2.891-2.891l1.655-.611a.158.158,0,0,0,0-.3Z" transform="translate(-112.316 0)" fill="#ffcbb2"/>
    <path id="Path_8" data-name="Path 8" d="M41.361,224.259l-2.082-.768a6.141,6.141,0,0,1-3.636-3.636l-.768-2.082a.2.2,0,0,0-.374,0l-.768,2.082a6.14,6.14,0,0,1-3.636,3.636l-2.082.768a.2.2,0,0,0,0,.374l2.082.768a6.14,6.14,0,0,1,3.636,3.636l.768,2.082a.2.2,0,0,0,.374,0l.768-2.082a6.139,6.139,0,0,1,3.636-3.636l2.082-.768a.2.2,0,0,0,0-.374Z" transform="translate(-18.175 -174.809)" fill="#ffcbb2"/>
  </g>
</svg>
