<svg xmlns="http://www.w3.org/2000/svg" width="23.5" height="23.5" viewBox="0 0 23.5 23.5">
  <path id="started" d="M17.848,29.5a11.483,11.483,0,0,1-4.6-.93,12.149,12.149,0,0,1-3.77-2.53A11.814,11.814,0,0,1,6.93,22.287a11.483,11.483,0,0,1-.93-4.6,11.253,11.253,0,0,1,.93-4.569,11.722,11.722,0,0,1,2.546-3.7,12.06,12.06,0,0,1,3.77-2.5A11.66,11.66,0,0,1,17.848,6a11.1,11.1,0,0,1,4.945,1.142,12.421,12.421,0,0,1,4.031,3.133V6.816h1.958V13.6H21.96V11.647h3.427A11.349,11.349,0,0,0,22.009,8.97a8.876,8.876,0,0,0-4.161-1.012,9.722,9.722,0,0,0-6.985,2.791,9.115,9.115,0,0,0-2.9,6.838,9.655,9.655,0,0,0,2.872,7.05,9.492,9.492,0,0,0,7.017,2.9,9.256,9.256,0,0,0,6.887-2.872,9.582,9.582,0,0,0,2.807-6.952H29.5a11.441,11.441,0,0,1-3.394,8.339A11.159,11.159,0,0,1,17.848,29.5Zm3.982-6.43L16.8,18.109V11.124h1.958v6.169l4.472,4.374Z" transform="translate(-6 -6)" fill="#2340ff"/>
</svg>
